<svg id="ml" width="41" height="29" viewBox="0 0 41 29" fill="none" xmlns="http://www.w3.org/2000/svg">
<path fill-rule="evenodd" clip-rule="evenodd" d="M20.5 0C31.8267 0 41 6.0294 41 13.3939V14.1691C41 22.0074 33.0326 28.3382 20.5 28.3382C8.0105 28.3382 0 22.0074 0 14.1691V13.3939C0 6.0294 9.17332 0 20.5 0Z" fill="#2D3277"/>
<path d="M39.7813 13.3877C39.7813 16.6286 37.7201 19.6386 34.2442 21.8632C30.7742 24.0839 25.9532 25.4755 20.6112 25.4755C15.2693 25.4755 10.4484 24.0839 6.97836 21.8632C3.50242 19.6386 1.44128 16.6286 1.44128 13.3877C1.44128 10.1468 3.50242 7.13668 6.97836 4.91216C10.4484 2.69144 15.2693 1.2998 20.6112 1.2998C25.9532 1.2998 30.7742 2.69144 34.2442 4.91216C37.7201 7.13668 39.7813 10.1468 39.7813 13.3877Z" fill="#00BCFF" stroke="black"/>
<path d="M14.0399 9.43159C14.0399 9.43159 13.8246 9.64688 13.9538 9.81915C14.2552 10.2068 15.2027 10.4221 16.1933 10.2068C16.7532 10.0776 17.5283 9.47462 18.2174 8.91475C18.9926 8.31181 19.7679 7.66579 20.5431 7.45045C21.3613 7.19205 21.8782 7.32126 22.2227 7.40739C22.6103 7.53659 23.041 7.79499 23.7731 8.31179C25.1082 9.30234 30.5347 14.0398 31.4822 14.858C32.2143 14.5135 35.5735 13.0923 40.1387 12.0587C39.7511 9.64691 38.2868 7.40741 36.0473 5.59859C32.9464 6.89061 29.1134 7.57969 25.3666 5.77087C25.3666 5.77087 23.3425 4.82335 21.3183 4.86642C18.3467 4.95255 17.0977 6.20152 15.7196 7.57967L14.0399 9.43159Z" fill="white"/>
<path d="M31.2669 15.375C31.2238 15.3319 24.8929 9.81929 23.4717 8.74261C22.6534 8.13967 22.1796 7.9674 21.7059 7.88126C21.4475 7.83819 21.103 7.88129 20.8446 7.96743C20.1986 8.1397 19.2942 8.74262 18.519 9.34556C17.7007 9.99157 16.9685 10.5945 16.2794 10.7237C15.375 10.9391 14.2984 10.6807 13.8246 10.3361C13.6093 10.2069 13.4801 10.0347 13.394 9.8624C13.2217 9.43173 13.5662 9.08718 13.6093 9.04411L15.332 7.14914L15.9349 6.54619C15.3751 6.63232 14.8582 6.76154 14.3414 6.89075C13.6954 7.06302 13.0925 7.23525 12.4896 7.23525C12.2312 7.23525 10.853 7.01994 10.5946 6.9338C9.0011 6.50313 7.62291 6.07248 5.55568 5.125C3.10085 6.97689 1.42125 9.25946 0.94751 11.8004C1.29205 11.8866 1.89497 12.0588 2.1103 12.1019C7.70905 13.3508 9.43176 14.6428 9.7763 14.9012C10.1208 14.5136 10.5946 14.2983 11.1544 14.2983C11.7574 14.2983 12.3172 14.5998 12.6618 15.0735C12.9633 14.8151 13.437 14.5998 13.9969 14.5998C14.2553 14.5998 14.5137 14.6428 14.8151 14.729C15.4612 14.9443 15.7627 15.375 15.9349 15.7626C16.1503 15.6765 16.4086 15.5903 16.7101 15.5903C17.0116 15.5903 17.3131 15.6764 17.6576 15.8056C18.6912 16.2363 18.8635 17.27 18.7774 18.0452H18.9927C20.2416 18.0452 21.2322 19.0357 21.2322 20.2847C21.2322 20.6723 21.1461 21.0168 20.9738 21.3183C21.3183 21.4905 22.1366 21.9212 22.9118 21.8351C23.5147 21.7489 23.7301 21.5766 23.8162 21.4474C23.8593 21.3613 23.9454 21.2752 23.8593 21.1891L22.2658 19.4233C22.2658 19.4233 22.0074 19.1649 22.0935 19.0787C22.1797 18.9926 22.3519 19.1218 22.4811 19.208C23.2994 19.897 24.2469 20.8876 24.2469 20.8876C24.2469 20.8876 24.333 21.0168 24.6776 21.1029C24.979 21.146 25.5389 21.1029 25.9265 20.8014C26.0127 20.7153 26.1418 20.6292 26.1849 20.543C26.5725 20.0262 26.1419 19.5094 26.1419 19.5094L24.2899 17.4422C24.2899 17.4422 24.0316 17.1838 24.1177 17.0977C24.2038 17.0115 24.3761 17.1408 24.5053 17.2269C25.1082 17.7006 25.9265 18.562 26.7017 19.3372C26.874 19.4664 27.5631 19.897 28.4675 19.2941C29.0274 18.9065 29.1566 18.4758 29.1135 18.1313C29.0704 17.7006 28.7259 17.3561 28.7259 17.3561L26.228 14.8151C26.228 14.8151 25.9696 14.5998 26.0557 14.4706C26.1419 14.3844 26.3141 14.5137 26.4433 14.5998C27.2616 15.2889 29.415 17.2699 29.415 17.2699C29.458 17.2699 30.1902 17.8298 31.1376 17.2269C31.4822 17.0115 31.6975 16.7101 31.6975 16.3225C31.7406 15.7626 31.2669 15.375 31.2669 15.375Z" fill="white"/>
<path d="M19.0787 18.6047C18.6911 18.6047 18.2604 18.82 18.2174 18.82C18.1743 18.82 18.2174 18.6477 18.2604 18.5616C18.3035 18.4755 18.8203 16.9251 17.5714 16.3652C16.6239 15.9345 16.0209 16.4082 15.8487 16.6236C15.8056 16.6666 15.7625 16.6666 15.7625 16.6236C15.7625 16.3652 15.6333 15.59 14.772 15.3316C13.5661 14.9439 12.834 15.8053 12.6186 16.1068C12.5325 15.4177 11.9726 14.9009 11.2405 14.9009C10.4653 14.9009 9.8623 15.5038 9.8623 16.279C9.8623 17.0542 10.4653 17.6572 11.2405 17.6572C11.6281 17.6572 11.9295 17.528 12.1879 17.2696V17.3126C12.1449 17.6572 12.0157 18.9061 13.3077 19.3799C13.8245 19.5952 14.2552 19.423 14.6428 19.1645C14.772 19.0784 14.772 19.1215 14.772 19.2076C14.7289 19.5091 14.772 20.1981 15.7625 20.5857C16.4947 20.8872 16.9253 20.5857 17.1837 20.3273C17.3129 20.1981 17.356 20.2412 17.356 20.4135C17.3991 21.3179 18.1743 22.05 19.0787 22.05C20.0262 22.05 20.8014 21.2748 20.8014 20.3273C20.8014 19.3799 20.0262 18.6047 19.0787 18.6047Z" fill="white"/>
<path d="M31.5276 14.709C29.588 13.0274 25.1054 9.10367 23.8554 8.1982C23.1658 7.68079 22.6917 7.37897 22.2607 7.29274C22.0883 7.24962 21.8297 7.16336 21.4848 7.16336C21.1831 7.16336 20.8383 7.20649 20.4935 7.33585C19.7177 7.59455 18.9419 8.19821 18.166 8.80186L18.1229 8.84497C17.4333 9.4055 16.7006 9.96604 16.1403 10.0954C15.8817 10.1385 15.6661 10.1816 15.4075 10.1816C14.8041 10.1816 14.2438 10.0091 14.0283 9.75043C13.9852 9.70731 14.0283 9.62107 14.1145 9.53484L15.8385 7.68081C17.1747 6.34416 18.4246 5.09371 21.3556 5.00748H21.4848C23.2951 5.00748 25.1054 5.82671 25.3209 5.91294C27.045 6.73218 28.769 7.16336 30.5362 7.16336C32.3896 7.16336 34.2861 6.68909 36.2687 5.78362C36.0532 5.61115 35.7946 5.39554 35.5791 5.22307C33.812 5.99919 32.1741 6.34412 30.5362 6.34412C28.8983 6.34412 27.2605 5.95608 25.6657 5.17996C25.5795 5.13684 23.5968 4.18823 21.4848 4.18823H21.3125C18.8557 4.23135 17.4764 5.09371 16.5713 5.86983C15.6662 5.86983 14.8903 6.12854 14.2007 6.30101C13.5973 6.47348 13.0369 6.60287 12.5197 6.60287H11.8732C11.2698 6.60287 8.25264 5.86985 5.88204 4.92127C5.62343 5.09374 5.40795 5.26619 5.14933 5.43866C7.64923 6.47348 10.7094 7.24961 11.6577 7.33585C11.9163 7.33585 12.218 7.37895 12.5197 7.37895C13.1662 7.37895 13.7697 7.20651 14.4162 7.03404C14.8041 6.94781 15.192 6.81842 15.5799 6.73219L15.2351 7.07715L13.511 8.97434C13.3817 9.10369 13.08 9.49173 13.2524 9.92291C13.3386 10.0954 13.511 10.2678 13.7265 10.4403C14.1575 10.699 14.8903 10.9146 15.5799 10.9146C15.8385 10.9146 16.0971 10.8715 16.3126 10.8284C17.0454 10.6559 17.8212 10.0523 18.597 9.40552C19.2436 8.8881 20.1487 8.24131 20.8383 8.02572C21.0538 7.9826 21.2693 7.9395 21.4848 7.9395H21.6573C22.1314 7.98262 22.5624 8.1551 23.3813 8.75875C24.8037 9.83669 31.1396 15.3557 31.1827 15.3988C31.1827 15.3988 31.5706 15.7438 31.5706 16.3475C31.5706 16.6493 31.3552 16.9511 31.0534 17.1667C30.7948 17.3392 30.4931 17.4254 30.2345 17.4254C29.8035 17.4254 29.5018 17.2098 29.5018 17.2098C29.5018 17.2098 27.3036 15.2264 26.5278 14.5365C26.3985 14.4071 26.2691 14.3209 26.1398 14.3209C26.0536 14.3209 26.0105 14.364 25.9674 14.4072C25.8381 14.5796 25.9674 14.7952 26.1398 14.9246L28.6829 17.4685C28.6829 17.4685 28.9845 17.7703 29.0276 18.1584C29.0276 18.5896 28.8553 18.9345 28.4243 19.1932C28.1225 19.4088 27.8208 19.495 27.5191 19.495C27.1312 19.495 26.8726 19.3225 26.7864 19.2794L26.3984 18.9345C25.7519 18.2878 25.0623 17.5979 24.5451 17.2098C24.4158 17.1236 24.2865 16.9942 24.1572 16.9942C24.1141 16.9942 24.0279 16.9942 23.9848 17.0804C23.9417 17.1236 23.8985 17.2529 24.0278 17.4685C24.0709 17.5547 24.1572 17.5979 24.1572 17.5979L26.0105 19.6675C26.0105 19.6675 26.3985 20.1418 26.0537 20.5299L25.9674 20.6161L25.795 20.7885C25.4933 21.0473 25.0623 21.0904 24.8899 21.0904H24.6313C24.4589 21.0473 24.3296 21.0042 24.2434 20.9179C24.1572 20.7886 23.2089 19.8831 22.4331 19.2363C22.3469 19.1501 22.2176 19.0638 22.0883 19.0638C22.0452 19.0638 21.959 19.107 21.9159 19.1501C21.7865 19.3226 22.0021 19.5813 22.0883 19.6675L23.6831 21.3922C23.6831 21.3922 23.683 21.4353 23.6399 21.5216C23.5968 21.6078 23.3814 21.7803 22.821 21.8665H22.6055C22.0021 21.8665 21.3986 21.5647 21.0538 21.3922C21.1831 21.0904 21.2693 20.7455 21.2693 20.4005C21.2693 19.107 20.2349 18.0722 18.9419 18.0722H18.8556C18.8987 17.4685 18.8126 16.3475 17.6488 15.8732C17.304 15.7438 17.0023 15.6576 16.6575 15.6576C16.3989 15.6576 16.1834 15.7007 15.9248 15.7869C15.6662 15.3126 15.2782 14.9677 14.761 14.7952C14.4593 14.709 14.2007 14.6659 13.8989 14.6659C13.4248 14.6659 12.9938 14.7952 12.6059 15.097C12.4187 14.8664 12.182 14.6808 11.9134 14.5539C11.6449 14.427 11.3513 14.3622 11.0542 14.3641C10.537 14.3641 10.0198 14.5796 9.67501 14.9246C9.20089 14.5365 7.26129 13.3292 2.04598 12.1219C1.78737 12.0788 1.22707 11.9063 0.882256 11.777C0.839154 12.0357 0.796031 12.3375 0.75293 12.6393C0.75293 12.6393 1.7012 12.8549 1.91671 12.898C7.21822 14.0622 8.98538 15.3126 9.28709 15.5282C9.20088 15.7869 9.15776 16.0456 9.15776 16.3043C9.15776 17.4254 10.0629 18.2878 11.1404 18.2878C11.2697 18.2878 11.399 18.2878 11.5284 18.2446C11.7008 19.0639 12.218 19.6675 13.0369 19.9694C13.2955 20.0556 13.511 20.0987 13.7265 20.0987C13.8558 20.0987 14.0283 20.0987 14.2007 20.0556C14.33 20.4436 14.6748 20.9179 15.4506 21.2197C15.7092 21.3491 15.9678 21.3922 16.2265 21.3922C16.442 21.3922 16.6575 21.3491 16.8299 21.2629C17.1747 22.1252 18.0367 22.7288 18.985 22.7288C19.6315 22.7288 20.2349 22.4702 20.6659 21.9959C21.0539 22.2115 21.8297 22.5995 22.6486 22.5995H22.9503C23.7692 22.5133 24.114 22.1683 24.2864 21.9528C24.3295 21.9096 24.3296 21.8665 24.3727 21.8234C24.5451 21.8665 24.7606 21.9097 25.0192 21.9097C25.4502 21.9097 25.8812 21.7803 26.3123 21.4353C26.7433 21.1335 27.045 20.7023 27.045 20.3143C27.1743 20.3574 27.3467 20.3574 27.476 20.3574C27.907 20.3574 28.3811 20.228 28.8121 19.9262C29.6311 19.4088 29.7604 18.6758 29.7604 18.2446C29.8897 18.2878 30.0621 18.2878 30.1914 18.2878C30.6224 18.2878 31.0535 18.1584 31.4414 17.8997C31.9586 17.5547 32.2603 17.0805 32.3034 16.5199C32.3465 16.1319 32.2172 15.7438 32.0448 15.3988C33.424 14.7952 36.5273 13.6741 40.2341 12.8118C40.2341 12.5099 40.191 12.2512 40.1048 11.9494C35.6653 12.898 32.3465 14.3209 31.5276 14.709ZM19.0712 21.9097C18.2091 21.9097 17.5195 21.2197 17.4764 20.3574C17.4764 20.2711 17.4764 20.0987 17.304 20.0987C17.2178 20.0987 17.1747 20.1418 17.0885 20.1849C16.9161 20.3574 16.6574 20.5299 16.3126 20.5299C16.1402 20.5299 15.9678 20.4868 15.7954 20.4005C14.8903 20.0125 14.8472 19.4088 14.8903 19.1501C14.8903 19.0639 14.8903 19.0207 14.8472 18.9776L14.8041 18.9345H14.761C14.7179 18.9345 14.6748 18.9345 14.5886 19.0207C14.33 19.1932 14.0714 19.2794 13.8128 19.2794C13.6835 19.2794 13.5111 19.2363 13.3817 19.1932C12.1749 18.7189 12.2611 17.5979 12.3473 17.2529C12.3473 17.1667 12.3473 17.1236 12.3042 17.0804L12.218 16.9942L12.1318 17.0804C11.8732 17.296 11.5715 17.4254 11.2698 17.4254C10.5801 17.4254 10.0198 16.8649 10.0198 16.175C10.0198 15.4851 10.5801 14.9246 11.2698 14.9246C11.8732 14.9246 12.4335 15.3988 12.5197 16.0025L12.5628 16.3475L12.7352 16.0456C12.7352 16.0025 13.2525 15.2264 14.2007 15.2695C14.3731 15.2695 14.5455 15.3126 14.761 15.3557C15.4937 15.5713 15.623 16.2612 15.623 16.5199C15.623 16.6924 15.7523 16.6924 15.7523 16.6924C15.7954 16.6924 15.8816 16.6493 15.8816 16.6062C16.0109 16.4768 16.3127 16.2181 16.7868 16.2181C17.0023 16.2181 17.2178 16.2612 17.4764 16.3906C18.6402 16.908 18.1229 18.374 18.1229 18.4171C18.0367 18.6758 17.9936 18.762 18.1229 18.8483H18.2091C18.2522 18.8483 18.3384 18.8483 18.4246 18.8051C18.597 18.762 18.8126 18.6758 19.0281 18.6758C19.8901 18.6758 20.6228 19.4088 20.6228 20.2712C20.6659 21.2197 19.9332 21.9097 19.0712 21.9097Z" fill="#2D3277"/>
</svg>
