<svg id="pix" width="44" height="44" viewBox="0 0 44 44" fill="none" xmlns="http://www.w3.org/2000/svg">
<path d="M34.3146 33.6573C33.4661 33.6604 32.6254 33.4953 31.841 33.1715C31.0567 32.8478 30.3443 32.3718 29.745 31.7711L23.1442 25.1662C22.9107 24.943 22.6002 24.8184 22.2771 24.8184C21.9541 24.8184 21.6435 24.943 21.41 25.1662L14.787 31.7893C14.188 32.3908 13.4758 32.8677 12.6915 33.1924C11.9071 33.5171 11.0662 33.6832 10.2173 33.681H8.92505L17.2893 42.0452C18.5437 43.297 20.2435 44 22.0157 44C23.7879 44 25.4878 43.297 26.7422 42.0452L35.1232 33.6629L34.3146 33.6573Z" fill="#32BCAD"/>
<path d="M10.2187 10.3155C11.0676 10.3133 11.9085 10.4793 12.6929 10.804C13.4772 11.1287 14.1895 11.6056 14.7884 12.2072L21.4114 18.8317C21.6416 19.0612 21.9534 19.1901 22.2785 19.1901C22.6036 19.1901 22.9154 19.0612 23.1456 18.8317L29.745 12.2323C30.3434 11.63 31.0555 11.1524 31.8399 10.8275C32.6244 10.5025 33.4655 10.3365 34.3146 10.3392H35.1092L26.7283 1.95829C26.1077 1.33745 25.3708 0.844959 24.5598 0.508951C23.7489 0.172943 22.8796 0 22.0018 0C21.124 0 20.2547 0.172943 19.4437 0.508951C18.6328 0.844959 17.8959 1.33745 17.2753 1.95829L8.92505 10.3155H10.2187Z" fill="#32BCAD"/>
<path d="M42.0417 17.2731L36.9772 12.2086C36.863 12.2553 36.7409 12.2799 36.6175 12.2811H34.3146C33.1162 12.2841 31.9674 12.76 31.118 13.6054L24.5187 20.2006C23.9244 20.7938 23.1189 21.127 22.2792 21.127C21.4394 21.127 20.634 20.7938 20.0396 20.2006L13.4152 13.5803C12.566 12.7344 11.4173 12.258 10.2187 12.2546H7.39157C7.27505 12.252 7.15991 12.2288 7.05142 12.1863L1.95483 17.2731C0.703029 18.5276 0 20.2274 0 21.9996C0 23.7718 0.703029 25.4716 1.95483 26.7261L7.04027 31.8115C7.14853 31.7682 7.26381 31.745 7.38041 31.7432H10.2187C11.4172 31.7397 12.566 31.2633 13.4152 30.4175L20.0383 23.7944C21.2357 22.5983 23.3226 22.5983 24.5187 23.7944L31.118 30.3924C31.9674 31.2378 33.1162 31.7137 34.3146 31.7167H36.6175C36.7409 31.7176 36.8631 31.7422 36.9772 31.7892L42.0417 26.7247C42.6626 26.1041 43.155 25.3672 43.4911 24.5562C43.8271 23.7453 44 22.876 44 21.9982C44 21.1204 43.8271 20.2511 43.4911 19.4401C43.155 18.6292 42.6626 17.8923 42.0417 17.2717" fill="#32BCAD"/>
</svg>
